{"accessors":[{"bufferView":1,"componentType":5126,"count":482,"max":[1,1,1],"min":[-1,-1,-1],"type":"VEC3"},{"bufferView":1,"byteOffset":5784,"componentType":5126,"count":482,"max":[1,1,1],"min":[-1,-1,-1],"type":"VEC3"},{"bufferView":0,"componentType":5125,"count":2880,"max":[481],"min":[0],"type":"SCALAR"},{"bufferView":1,"byteOffset":11568,"componentType":5126,"count":64,"max":[1,1,1],"min":[-1,-1,-1],"type":"VEC3"},{"bufferView":1,"byteOffset":12336,"componentType":5126,"count":64,"max":[0.7278825640678406,0.7278825640678406,0.6857172250747681],"min":[-0.7278825640678406,-0.7278825640678406,-0.6857172250747681],"type":"VEC3"},{"bufferView":0,"byteOffset":11520,"componentType":5125,"count":372,"max":[63],"min":[0],"type":"SCALAR"},{"bufferView":1,"byteOffset":13104,"componentType":5126,"count":64,"max":[1,1,1],"min":[-1,-1,-1],"type":"VEC3"},{"bufferView":1,"byteOffset":13872,"componentType":5126,"count":64,"max":[0.7278825640678406,0.7278825640678406,0.6857172250747681],"min":[-0.7278825640678406,-0.7278825640678406,-0.6857172250747681],"type":"VEC3"},{"bufferView":0,"byteOffset":13008,"componentType":5125,"count":372,"max":[63],"min":[0],"type":"SCALAR"},{"bufferView":1,"byteOffset":14640,"componentType":5126,"count":482,"max":[1,1,1],"min":[-1,-1,-1],"type":"VEC3"},{"bufferView":1,"byteOffset":20424,"componentType":5126,"count":482,"max":[1,1,1],"min":[-1,-1,-1],"type":"VEC3"},{"bufferView":0,"byteOffset":14496,"componentType":5125,"count":2880,"max":[481],"min":[0],"type":"SCALAR"},{"bufferView":1,"byteOffset":26208,"componentType":5126,"count":482,"max":[1,1,1],"min":[-1,-1,-1],"type":"VEC3"},{"bufferView":1,"byteOffset":31992,"componentType":5126,"count":482,"max":[1,1,1],"min":[-1,-1,-1],"type":"VEC3"},{"bufferView":0,"byteOffset":26016,"componentType":5125,"count":2880,"max":[481],"min":[0],"type":"SCALAR"},{"bufferView":1,"byteOffset":37776,"componentType":5126,"count":64,"max":[1,1,1],"min":[-1,-1,-1],"type":"VEC3"},{"bufferView":1,"byteOffset":38544,"componentType":5126,"count":64,"max":[0.7278825640678406,0.7278825640678406,0.6857172250747681],"min":[-0.7278825640678406,-0.7278825640678406,-0.6857172250747681],"type":"VEC3"},{"bufferView":0,"byteOffset":37536,"componentType":5125,"count":372,"max":[63],"min":[0],"type":"SCALAR"},{"bufferView":1,"byteOffset":39312,"componentType":5126,"count":64,"max":[1,1,1],"min":[-1,-1,-1],"type":"VEC3"},{"bufferView":1,"byteOffset":40080,"componentType":5126,"count":64,"max":[0.7278825640678406,0.7278825640678406,0.6857172250747681],"min":[-0.7278825640678406,-0.7278825640678406,-0.6857172250747681],"type":"VEC3"},{"bufferView":0,"byteOffset":39024,"componentType":5125,"count":372,"max":[63],"min":[0],"type":"SCALAR"},{"bufferView":1,"byteOffset":40848,"componentType":5126,"count":482,"max":[1,1,1],"min":[-1,-1,-1],"type":"VEC3"},{"bufferView":1,"byteOffset":46632,"componentType":5126,"count":482,"max":[1,1,1],"min":[-1,-1,-1],"type":"VEC3"},{"bufferView":0,"byteOffset":40512,"componentType":5125,"count":2880,"max":[481],"min":[0],"type":"SCALAR"},{"bufferView":1,"byteOffset":52416,"componentType":5126,"count":482,"max":[1,1,1],"min":[-1,-1,-1],"type":"VEC3"},{"bufferView":1,"byteOffset":58200,"componentType":5126,"count":482,"max":[1,1,1],"min":[-1,-1,-1],"type":"VEC3"},{"bufferView":0,"byteOffset":52032,"componentType":5125,"count":2880,"max":[481],"min":[0],"type":"SCALAR"}],"asset":{"extras":{"author":"dubey.ujjwal1994 (https://sketchfab.com/dubey.ujjwal1994)","license":"CC-BY-4.0 (http://creativecommons.org/licenses/by/4.0/)","source":"https://sketchfab.com/models/6e09c1451691443cb520e8ff18bfe5c1","title":"Tetrahedral structure of Methane"},"generator":"Sketchfab-3.18.7","version":"2.0"},"bufferViews":[{"buffer":0,"byteLength":63552,"byteOffset":0,"name":"floatBufferViews","target":34963},{"buffer":0,"byteLength":63984,"byteOffset":63552,"byteStride":12,"name":"floatBufferViews","target":34962}],"buffers":[{"byteLength":127536,"uri":"data:application/octet-stream;base64,"}],"materials":[{"doubleSided":true,"emissiveFactor":[0,0,0],"name":"Material.002","pbrMetallicRoughness":{"baseColorFactor":[0.0668064058,0.006489078,0.0041538915,1],"metallicFactor":0,"roughnessFactor":0.6}},{"doubleSided":true,"emissiveFactor":[0,0,0],"name":"Material.001","pbrMetallicRoughness":{"baseColorFactor":[0.8000000119,0.8000000119,0.8000000119,1],"metallicFactor":0,"roughnessFactor":0.6}}],"meshes":[{"name":"Sphere.001_0","primitives":[{"attributes":{"NORMAL":1,"POSITION":0},"indices":2,"material":1,"mode":4}]},{"name":"Cylinder.002_0","primitives":[{"attributes":{"NORMAL":4,"POSITION":3},"indices":5,"material":1,"mode":4}]},{"name":"Cylinder.003_0","primitives":[{"attributes":{"NORMAL":7,"POSITION":6},"indices":8,"material":1,"mode":4}]},{"name":"Sphere.002_0","primitives":[{"attributes":{"NORMAL":10,"POSITION":9},"indices":11,"material":1,"mode":4}]},{"name":"Sphere.000_0","primitives":[{"attributes":{"NORMAL":13,"POSITION":12},"indices":14,"material":1,"mode":4}]},{"name":"Cylinder.000_0","primitives":[{"attributes":{"NORMAL":16,"POSITION":15},"indices":17,"material":1,"mode":4}]},{"name":"Cylinder.001_0","primitives":[{"attributes":{"NORMAL":19,"POSITION":18},"indices":20,"material":1,"mode":4}]},{"name":"Sphere.003_0","primitives":[{"attributes":{"NORMAL":22,"POSITION":21},"indices":23,"material":1,"mode":4}]},{"name":"Sphere_0","primitives":[{"attributes":{"NORMAL":25,"POSITION":24},"indices":26,"material":0,"mode":4}]}],"nodes":[{"children":[1],"name":"RootNode (gltf orientation matrix)","rotation":[-0.7071067811865475,0,0,0.7071067811865476]},{"children":[2],"name":"RootNode (model correction matrix)"},{"children":[3,5,7,9,11,13,15,17,19,21,23],"name":"Root"},{"children":[4],"matrix":[-0.13446000000000002,0.15280000000000002,-0.024000000000000004,0,0.007960000000000002,0.03860000000000001,0.20112,0,0.15447000000000002,0.13102,-0.03125000000000001,0,0.50432,0.51819,0.09749000000000003,1],"name":"Lamp"},{"name":"Lamp"},{"children":[6],"matrix":[-0.12357000000000001,-0.10895,-0.08978000000000003,0,-0.08814000000000002,0.15274000000000004,-0.06404000000000001,0,0.11028000000000002,0,-0.15179000000000004,0,-0.7493000000000001,1.3458999999999999,-0.49607000000000007,1],"name":"Sphere.001"},{"mesh":0,"name":"Sphere.001_0"},{"children":[8],"matrix":[-0.011320000000000002,-0.009980000000000003,-0.008230000000000003,0,0.010100000000000001,0,-0.013910000000000002,0,0.3859200000000001,-0.6687600000000001,0.28039000000000003,0,-0.34413000000000005,0.6533300000000001,-0.21781000000000003,1],"name":"Cylinder.002"},{"mesh":1,"name":"Cylinder.002_0"},{"children":[10],"matrix":[0.011320000000000002,-0.009980000000000003,0.008230000000000003,0,0.010100000000000001,0,-0.013910000000000002,0,0.3859200000000001,0.6687600000000001,0.28039000000000003,0,-0.3462700000000001,-0.6686500000000002,-0.21937,1],"name":"Cylinder.003"},{"mesh":2,"name":"Cylinder.003_0"},{"children":[12],"matrix":[0.12357000000000001,-0.10895,0.08978000000000003,0,-0.08814000000000002,-0.15274000000000004,-0.06404000000000001,0,0.11028000000000002,0,-0.15179000000000004,0,-0.7543000000000001,-1.3587,-0.49969,1],"name":"Sphere.002"},{"mesh":3,"name":"Sphere.002_0"},{"children":[14],"matrix":[-0.18761000000000003,0,-0.0016400000000000004,0,-0.0016400000000000004,0,0.18761000000000003,0,0,0.18762,0,0,0.022470000000000007,-0.011260000000000003,1.7107100000000002,1],"name":"Sphere.000"},{"mesh":4,"name":"Sphere.000_0"},{"children":[16],"matrix":[-0.017190000000000004,0,-0.00015000000000000007,0,0,0.017190000000000004,0,0,0.007170000000000002,0,-0.82142,0,0.027720000000000005,0.0017900000000000006,0.86156,1],"name":"Cylinder.000"},{"mesh":5,"name":"Cylinder.000_0"},{"children":[18],"matrix":[0.005450000000000001,0,0.016300000000000005,0,0,0.017190000000000004,0,0,-0.779,0,0.26065,0,0.80261,0.0017900000000000006,-0.20949000000000004,1],"name":"Cylinder.001"},{"mesh":6,"name":"Cylinder.001_0"},{"children":[20],"matrix":[0.05953000000000001,0,0.17792000000000002,0,0.17792000000000002,0,-0.05953000000000001,0,0,0.18762,0,0,1.6072,-0.011260000000000003,-0.4809800000000001,1],"name":"Sphere.003"},{"mesh":7,"name":"Sphere.003_0"},{"children":[22],"matrix":[0.18923000000000004,-0.05961000000000002,-0.05139000000000001,0,-0.07816000000000002,-0.15803000000000003,-0.10449000000000001,0,-0.009230000000000004,0.11608000000000002,-0.16865000000000002,0,0.017930000000000005,0.24540000000000003,-0.61256,1],"name":"Lamp.001"},{"name":"Lamp.001"},{"children":[24],"matrix":[0.17311,0,-0.23827,0,0,0.29452000000000006,0,0,0.23827,0,0.17311,0,0.032060000000000005,0,0.06023000000000001,1],"name":"Sphere"},{"mesh":8,"name":"Sphere_0"}],"scene":0,"scenes":[{"name":"OSG_Scene","nodes":[0]}]}