{"accessors":[{"bufferView":2,"componentType":5126,"count":2856,"max":[0.04405971243977547,0.052100300788879395,0.07402928918600082],"min":[-0.13364644348621368,-0.09695891290903091,-0.02184676192700863],"type":"VEC3"},{"bufferView":2,"byteOffset":34272,"componentType":5126,"count":2856,"max":[0.9999855756759644,0.9997177720069885,0.9999880790710449],"min":[-0.9990717172622681,-0.9999874234199524,-0.9997702836990356],"type":"VEC3"},{"bufferView":1,"componentType":5126,"count":2856,"max":[0.9935382604598999,0.9224129915237427],"min":[0.017450086772441864,0.14554902911186218],"type":"VEC2"},{"bufferView":1,"byteOffset":22848,"componentType":5126,"count":2856,"max":[0.9935382604598999,0.9224129915237427],"min":[0.017450086772441864,0.14554902911186218],"type":"VEC2"},{"bufferView":1,"byteOffset":45696,"componentType":5126,"count":2856,"max":[0.9935382604598999,0.9224129915237427],"min":[0.017450086772441864,0.14554902911186218],"type":"VEC2"},{"bufferView":0,"componentType":5125,"count":14844,"max":[2855],"min":[0],"type":"SCALAR"}],"asset":{"extras":{"author":"mHafiz0809 (https://sketchfab.com/Apiscod)","license":"CC-BY-4.0 (http://creativecommons.org/licenses/by/4.0/)","source":"https://sketchfab.com/3d-models/left-hand-rule-58daddcfd4674b5a9d65c851b07f8f3c","title":"Left Hand Rule"},"generator":"Sketchfab-8.89.0","version":"2.0"},"bufferViews":[{"buffer":0,"byteLength":59376,"byteOffset":0,"name":"floatBufferViews","target":34963},{"buffer":0,"byteLength":68544,"byteOffset":59376,"byteStride":8,"name":"floatBufferViews","target":34962},{"buffer":0,"byteLength":68544,"byteOffset":127920,"byteStride":12,"name":"floatBufferViews","target":34962}],"buffers":[{"byteLength":196464,"uri":"data:application/octet-stream;base64,"}],"images":[{"uri":"data:application/octet-stream;base64,"}],"materials":[{"doubleSided":true,"emissiveFactor":[0,0,0],"name":"Material.004","pbrMetallicRoughness":{"baseColorFactor":[1,1,1,1],"baseColorTexture":{"index":0,"texCoord":0},"metallicFactor":0,"roughnessFactor":0.9603240682}}],"meshes":[{"name":"Cube.005_Material.004_0","primitives":[{"attributes":{"NORMAL":1,"POSITION":0,"TEXCOORD_0":2,"TEXCOORD_1":3,"TEXCOORD_2":4},"indices":5,"material":0,"mode":4}]}],"nodes":[{"children":[1],"name":"RootNode (gltf orientation matrix)","rotation":[-0.7071067811865475,0,0,0.7071067811865476]},{"children":[2],"name":"RootNode (model correction matrix)"},{"children":[3],"matrix":[1,0,0,0,0,0,1,0,0,-1,0,0,0,0,0,1],"name":"LeftHandRule_Sketchfab.FBX"},{"children":[4],"name":"RootNode"},{"children":[5],"matrix":[1000,0,0,0,0,-999.9999999999867,0.00016292068151269683,0,0,-0.00016292068151269683,-999.9999999999867,0,0,0,0,1],"name":"Cube.005"},{"mesh":0,"name":"Cube.005_Material.004_0"}],"samplers":[{"magFilter":9729,"minFilter":9987,"wrapS":10497,"wrapT":10497}],"scene":0,"scenes":[{"name":"OSG_Scene","nodes":[0]}],"textures":[{"sampler":0,"source":0}]}